<svg viewBox="0 0 1500 372.79" xmlns="http://www.w3.org/2000/svg" data-name="Layer 2" id="Layer_2">
  <defs>
    <style>
      .cls-1 {
        fill: #e50076;
      }
    </style>
  </defs>
  <g data-name="Capa 1" id="Capa_1">
    <g>
      <g>
        <rect height="310.6" width="65.56" y="56.65" x="783.2" class="cls-1"></rect>
        <g>
          <path d="M376.97,372.79c-87.5,0-158.75-71.18-158.75-158.7S289.46,55.35,376.97,55.35s158.7,71.23,158.7,158.75-71.18,158.7-158.7,158.7M376.97,120.9c-51.37,0-93.19,41.78-93.19,93.2s41.82,93.15,93.19,93.15,93.16-41.82,93.16-93.15-41.84-93.2-93.16-93.2" class="cls-1"></path>
          <path d="M628.76,372.79c-87.51,0-158.72-71.18-158.72-158.75s71.21-158.7,158.72-158.7c63.37,0,120.68,37.68,145.8,95.9l-60.18,25.96c-14.75-34.17-48.4-56.3-85.62-56.3-51.37,0-93.17,41.78-93.17,93.14s41.8,93.2,93.17,93.2c37.58,0,71.23-22.35,85.84-56.92l60.33,25.56c-24.88,58.8-82.24,96.91-146.18,96.91" class="cls-1"></path>
          <path d="M1015.65,372.19c-87.52,0-158.73-71.2-158.73-158.72s71.21-158.75,158.73-158.75,158.68,71.23,158.68,158.75-71.18,158.72-158.68,158.72M1015.65,120.28c-51.37,0-93.22,41.83-93.22,93.19s41.85,93.16,93.22,93.16,93.14-41.79,93.14-93.16-41.82-93.19-93.14-93.19" class="cls-1"></path>
          <path d="M.58,367.33L0,56.65h147.23c66.27,0,120.18,53.91,120.18,120.17s-53.9,120.15-120.18,120.15h-81.21l.12,70.28-65.56.08ZM65.97,231.42h81.26c30.18,0,54.63-24.51,54.63-54.6s-24.46-54.62-54.63-54.62h-81.48l.22,109.22Z" class="cls-1"></path>
          <path d="M1500,367.25h-65.54v-153.15c0-51.42-41.82-93.2-93.19-93.2s-93.19,41.78-93.19,93.2v153.15h-65.56v-153.15c0-87.52,71.24-158.75,158.75-158.75s158.73,71.23,158.73,158.75v153.15Z" class="cls-1"></path>
          <polygon points="1128.07 62.78 1174.34 16.48 1220.65 62.78 1174.34 109.09 1128.07 62.78" class="cls-1"></polygon>
        </g>
      </g>
      <g>
        <path d="M.09,47L0,.2h22.18c9.98,0,18.1,8.12,18.1,18.1s-8.12,18.1-18.1,18.1h-12.23l.02,10.59H.09ZM9.94,26.52h12.24c4.55,0,8.23-3.69,8.23-8.23s-3.68-8.23-8.23-8.23h-12.27l.03,16.45Z" class="cls-1"></path>
        <path d="M62.01,47.82c-13.18,0-23.91-10.72-23.91-23.91S48.82,0,62.01,0c9.55,0,18.18,5.68,21.96,14.45l-9.07,3.91c-2.22-5.15-7.29-8.48-12.9-8.48-7.74,0-14.04,6.29-14.04,14.03s6.3,14.04,14.04,14.04c5.66,0,10.73-3.37,12.93-8.58l9.09,3.85c-3.75,8.86-12.39,14.6-22.02,14.6" class="cls-1"></path>
        <path d="M131.49,46.99h-9.87v-23.07c0-7.75-6.3-14.04-14.04-14.04s-14.04,6.29-14.04,14.04v23.07h-9.88v-23.07c0-13.18,10.73-23.91,23.91-23.91s23.91,10.73,23.91,23.91v23.07Z" class="cls-1"></path>
      </g>
    </g>
  </g>
</svg>